<mxfile host="app.diagrams.net" modified="2023-07-13T11:51:46.070Z" agent="Mozilla/5.0 (Windows NT 10.0; Win64; x64) AppleWebKit/537.36 (KHTML, like Gecko) Chrome/113.0.0.0 Safari/537.36 OPR/99.0.0.0" etag="tNcIaS_yv0TVJMHJn_N9" version="21.5.2" type="github">
  <diagram id="C5RBs43oDa-KdzZeNtuy" name="Page-1">
    <mxGraphModel dx="880" dy="492" grid="1" gridSize="10" guides="1" tooltips="1" connect="1" arrows="1" fold="1" page="1" pageScale="1" pageWidth="827" pageHeight="1169" math="0" shadow="0">
      <root>
        <mxCell id="WIyWlLk6GJQsqaUBKTNV-0" />
        <mxCell id="WIyWlLk6GJQsqaUBKTNV-1" parent="WIyWlLk6GJQsqaUBKTNV-0" />
        <mxCell id="UdTTTkoUw2RWTNvI6kQa-3" style="edgeStyle=orthogonalEdgeStyle;rounded=0;orthogonalLoop=1;jettySize=auto;html=1;exitX=1;exitY=0.5;exitDx=0;exitDy=0;" edge="1" parent="WIyWlLk6GJQsqaUBKTNV-1" source="UdTTTkoUw2RWTNvI6kQa-1" target="UdTTTkoUw2RWTNvI6kQa-2">
          <mxGeometry relative="1" as="geometry" />
        </mxCell>
        <mxCell id="UdTTTkoUw2RWTNvI6kQa-1" value="Start" style="ellipse;whiteSpace=wrap;html=1;" vertex="1" parent="WIyWlLk6GJQsqaUBKTNV-1">
          <mxGeometry x="40" width="120" height="80" as="geometry" />
        </mxCell>
        <mxCell id="UdTTTkoUw2RWTNvI6kQa-5" style="edgeStyle=orthogonalEdgeStyle;rounded=0;orthogonalLoop=1;jettySize=auto;html=1;exitX=1;exitY=0.5;exitDx=0;exitDy=0;entryX=0;entryY=0.5;entryDx=0;entryDy=0;" edge="1" parent="WIyWlLk6GJQsqaUBKTNV-1" source="UdTTTkoUw2RWTNvI6kQa-2" target="UdTTTkoUw2RWTNvI6kQa-4">
          <mxGeometry relative="1" as="geometry" />
        </mxCell>
        <mxCell id="UdTTTkoUw2RWTNvI6kQa-2" value="Input" style="shape=parallelogram;perimeter=parallelogramPerimeter;whiteSpace=wrap;html=1;fixedSize=1;" vertex="1" parent="WIyWlLk6GJQsqaUBKTNV-1">
          <mxGeometry x="200" y="10" width="120" height="60" as="geometry" />
        </mxCell>
        <mxCell id="UdTTTkoUw2RWTNvI6kQa-7" style="edgeStyle=orthogonalEdgeStyle;rounded=0;orthogonalLoop=1;jettySize=auto;html=1;exitX=1;exitY=0.5;exitDx=0;exitDy=0;entryX=0;entryY=0.5;entryDx=0;entryDy=0;" edge="1" parent="WIyWlLk6GJQsqaUBKTNV-1" source="UdTTTkoUw2RWTNvI6kQa-4" target="UdTTTkoUw2RWTNvI6kQa-6">
          <mxGeometry relative="1" as="geometry" />
        </mxCell>
        <mxCell id="UdTTTkoUw2RWTNvI6kQa-20" style="edgeStyle=orthogonalEdgeStyle;rounded=0;orthogonalLoop=1;jettySize=auto;html=1;exitX=0.5;exitY=1;exitDx=0;exitDy=0;entryX=0;entryY=0.5;entryDx=0;entryDy=0;" edge="1" parent="WIyWlLk6GJQsqaUBKTNV-1" source="UdTTTkoUw2RWTNvI6kQa-4" target="UdTTTkoUw2RWTNvI6kQa-14">
          <mxGeometry relative="1" as="geometry" />
        </mxCell>
        <mxCell id="UdTTTkoUw2RWTNvI6kQa-4" value="Insialisasi Variabel" style="rounded=1;whiteSpace=wrap;html=1;" vertex="1" parent="WIyWlLk6GJQsqaUBKTNV-1">
          <mxGeometry x="354" y="10" width="120" height="60" as="geometry" />
        </mxCell>
        <mxCell id="UdTTTkoUw2RWTNvI6kQa-11" style="edgeStyle=orthogonalEdgeStyle;rounded=0;orthogonalLoop=1;jettySize=auto;html=1;exitX=1;exitY=0.5;exitDx=0;exitDy=0;entryX=0;entryY=0.5;entryDx=0;entryDy=0;" edge="1" parent="WIyWlLk6GJQsqaUBKTNV-1" source="UdTTTkoUw2RWTNvI6kQa-6" target="UdTTTkoUw2RWTNvI6kQa-10">
          <mxGeometry relative="1" as="geometry" />
        </mxCell>
        <mxCell id="UdTTTkoUw2RWTNvI6kQa-13" style="edgeStyle=orthogonalEdgeStyle;rounded=0;orthogonalLoop=1;jettySize=auto;html=1;exitX=1;exitY=0.5;exitDx=0;exitDy=0;entryX=0;entryY=0.5;entryDx=0;entryDy=0;" edge="1" parent="WIyWlLk6GJQsqaUBKTNV-1" source="UdTTTkoUw2RWTNvI6kQa-6" target="UdTTTkoUw2RWTNvI6kQa-12">
          <mxGeometry relative="1" as="geometry" />
        </mxCell>
        <mxCell id="UdTTTkoUw2RWTNvI6kQa-6" value="Voucher &quot;PIJARFOOD5&quot; &amp;amp; Harga &amp;lt;= 50000" style="rhombus;whiteSpace=wrap;html=1;" vertex="1" parent="WIyWlLk6GJQsqaUBKTNV-1">
          <mxGeometry x="510" width="80" height="80" as="geometry" />
        </mxCell>
        <mxCell id="UdTTTkoUw2RWTNvI6kQa-10" value="Hitung potongan sebesar 50%" style="rounded=1;whiteSpace=wrap;html=1;" vertex="1" parent="WIyWlLk6GJQsqaUBKTNV-1">
          <mxGeometry x="630" y="10" width="120" height="60" as="geometry" />
        </mxCell>
        <mxCell id="UdTTTkoUw2RWTNvI6kQa-12" value="Kurangi potongan dari harga" style="rounded=1;whiteSpace=wrap;html=1;" vertex="1" parent="WIyWlLk6GJQsqaUBKTNV-1">
          <mxGeometry x="630" y="80" width="120" height="60" as="geometry" />
        </mxCell>
        <mxCell id="UdTTTkoUw2RWTNvI6kQa-17" style="edgeStyle=orthogonalEdgeStyle;rounded=0;orthogonalLoop=1;jettySize=auto;html=1;exitX=1;exitY=0.5;exitDx=0;exitDy=0;entryX=0;entryY=0.5;entryDx=0;entryDy=0;" edge="1" parent="WIyWlLk6GJQsqaUBKTNV-1" source="UdTTTkoUw2RWTNvI6kQa-14" target="UdTTTkoUw2RWTNvI6kQa-12">
          <mxGeometry relative="1" as="geometry" />
        </mxCell>
        <mxCell id="UdTTTkoUw2RWTNvI6kQa-19" style="edgeStyle=orthogonalEdgeStyle;rounded=0;orthogonalLoop=1;jettySize=auto;html=1;exitX=1;exitY=0.5;exitDx=0;exitDy=0;entryX=0;entryY=0.5;entryDx=0;entryDy=0;" edge="1" parent="WIyWlLk6GJQsqaUBKTNV-1" source="UdTTTkoUw2RWTNvI6kQa-14" target="UdTTTkoUw2RWTNvI6kQa-18">
          <mxGeometry relative="1" as="geometry" />
        </mxCell>
        <mxCell id="UdTTTkoUw2RWTNvI6kQa-14" value="Voucher &quot;DITRAKTIRPIJAR&quot; &amp;amp; Harga &amp;gt;=25000" style="rhombus;whiteSpace=wrap;html=1;" vertex="1" parent="WIyWlLk6GJQsqaUBKTNV-1">
          <mxGeometry x="500" y="130" width="100" height="100" as="geometry" />
        </mxCell>
        <mxCell id="UdTTTkoUw2RWTNvI6kQa-18" value="Hitung potongan sebesar 60%" style="rounded=1;whiteSpace=wrap;html=1;" vertex="1" parent="WIyWlLk6GJQsqaUBKTNV-1">
          <mxGeometry x="630" y="150" width="120" height="60" as="geometry" />
        </mxCell>
      </root>
    </mxGraphModel>
  </diagram>
</mxfile>
